<?xml version="1.0" encoding="UTF-8" standalone="no"?>
<!-- Created with Inkscape (http://www.inkscape.org/) -->

<svg
   xmlns:dc="http://purl.org/dc/elements/1.1/"
   xmlns:cc="http://creativecommons.org/ns#"
   xmlns:rdf="http://www.w3.org/1999/02/22-rdf-syntax-ns#"
   xmlns:svg="http://www.w3.org/2000/svg"
   xmlns="http://www.w3.org/2000/svg"
   xmlns:sodipodi="http://sodipodi.sourceforge.net/DTD/sodipodi-0.dtd"
   xmlns:inkscape="http://www.inkscape.org/namespaces/inkscape"
   width="12.913677mm"
   height="12.760074mm"
   viewBox="0 0 12.913677 12.760074"
   version="1.1"
   id="svg8"
   inkscape:version="0.92.3 (2405546, 2018-03-11)"
   sodipodi:docname="brief.svg">
  <defs
     id="defs2" />
  <sodipodi:namedview
     id="base"
     pagecolor="#ffffff"
     bordercolor="#666666"
     borderopacity="1.0"
     inkscape:pageopacity="0.0"
     inkscape:pageshadow="2"
     inkscape:zoom="2.8"
     inkscape:cx="33.295707"
     inkscape:cy="9.0956347"
     inkscape:document-units="mm"
     inkscape:current-layer="layer1"
     showgrid="false"
     inkscape:window-width="1920"
     inkscape:window-height="1001"
     inkscape:window-x="-9"
     inkscape:window-y="-9"
     inkscape:window-maximized="1"
     fit-margin-top="0"
     fit-margin-left="0"
     fit-margin-right="0"
     fit-margin-bottom="0" />
  <metadata
     id="metadata5">
    <rdf:RDF>
      <cc:Work
         rdf:about="">
        <dc:format>image/svg+xml</dc:format>
        <dc:type
           rdf:resource="http://purl.org/dc/dcmitype/StillImage" />
        <dc:title />
      </cc:Work>
    </rdf:RDF>
  </metadata>
  <g
     inkscape:label="Layer 1"
     inkscape:groupmode="layer"
     id="layer1"
     transform="translate(-94.927071,-184.63058)">
    <path
       style="fill:#cccccc;stroke-width:0.26458335"
       d="m 100.33058,197.14842 c -0.588529,-0.24746 -1.690009,-0.36288 -3.153939,-0.33048 l -2.24957,0.0498 0.0455,-2.17553 c 0.0999,-4.77819 1.68307,-8.15465 4.42148,-9.42973 1.474369,-0.6865 3.338249,-0.85445 3.338249,-0.30079 0,0.18412 0.59734,0.54692 1.32742,0.80623 1.52689,0.5423 2.5615,1.83262 2.82105,3.51826 0.0872,0.5661 0.28295,1.2674 0.43509,1.55844 0.15214,0.29104 0.31855,1.5412 0.36979,2.77813 0.0512,1.23692 0.11856,2.46428 0.1496,2.72745 0.0505,0.42831 -0.20721,0.48489 -2.45711,0.53947 -1.38245,0.0335 -2.88021,0.19104 -3.32836,0.35 -0.6309,0.22379 -1.01893,0.2032 -1.71918,-0.0912 z m 2.37662,-0.7138 c 0.23341,-0.1873 1.2082,-0.26309 2.61897,-0.20361 2.02262,0.0853 2.23003,0.0501 2.0756,-0.35237 -0.0944,-0.24591 -0.17157,-0.85409 -0.17157,-1.35151 0,-1.10312 -0.35529,-1.16919 -0.77953,-0.14497 -0.37618,0.90817 -1.2563,1.35723 -2.66005,1.35723 -0.56839,0 -1.3411,0.14018 -1.71712,0.31151 -0.56268,0.25637 -0.7586,0.23659 -1.10696,-0.11178 -0.60821,-0.6082 -0.25514,-1.25806 0.68349,-1.25806 0.43254,0 0.86002,0.11906 0.94996,0.26458 0.30911,0.50015 2.47219,0.30594 3.05216,-0.27403 0.47293,-0.47293 0.49137,-0.58586 0.15119,-0.92604 -0.53116,-0.53116 -0.59834,-0.50132 -0.91474,0.40632 -0.15219,0.43657 -0.40196,0.79375 -0.55505,0.79375 -0.35515,0 -0.35312,-0.021 0.10867,-1.12622 0.21286,-0.50944 0.57004,-0.9965 0.79375,-1.08234 0.59675,-0.229 0.496,-0.84708 -0.21389,-1.31222 -0.34134,-0.22366 -1.01114,-1.01522 -1.48844,-1.75903 l -0.86782,-1.35238 -0.94424,1.10314 c -0.91337,1.06706 -3.134109,2.34617 -4.082529,2.35147 -0.54934,0.003 -0.61806,0.67975 -0.0997,0.98162 0.19983,0.11638 0.6643,0.8069 1.03215,1.53451 1.25355,2.47949 2.753619,3.25948 4.135699,2.15043 z m -4.414389,-1.55512 c -0.39049,-0.76399 -0.92057,-1.54464 -1.17796,-1.7348 -0.5362,-0.39612 -0.63138,-1.60892 -0.13725,-1.74902 0.1819,-0.0516 0.84414,-0.23343 1.47165,-0.40412 1.25029,-0.3401 3.038569,-1.79767 3.645499,-2.97135 0.21259,-0.41111 0.47278,-0.7472 0.57818,-0.74685 0.10541,3.4e-4 0.52844,0.64522 0.94009,1.43306 0.84718,1.6214 1.77303,2.60112 1.95809,2.07204 0.0636,-0.18191 0.33123,-0.33073 0.59468,-0.33073 0.42496,0 0.45116,-0.12388 0.23228,-1.09804 -0.42478,-1.89055 -1.91629,-3.39988 -3.35976,-3.39988 -0.2827,0 -0.58253,-0.17859 -0.66629,-0.39687 -0.37669,-0.98164 -3.201919,-0.0405 -4.575819,1.52427 -1.35364,1.54172 -2.44816,5.23805 -2.46701,8.33145 l -0.005,0.8599 h 1.83942 1.83941 z m 3.778009,0.59531 c 0.0899,-0.14552 -0.0816,-0.26458 -0.38126,-0.26458 -0.29963,0 -0.54478,0.11906 -0.54478,0.26458 0,0.14552 0.17157,0.26458 0.38126,0.26458 0.2097,0 0.45485,-0.11906 0.54478,-0.26458 z m 4.981,-2.68678 c 0.34373,-0.54492 0.003,-1.81114 -0.48812,-1.81114 -0.28906,0 -0.39183,0.31807 -0.39183,1.21268 0,1.23112 0.33651,1.45999 0.87995,0.59846 z"
       id="path21"
       inkscape:connector-curvature="0" />
  </g>
</svg>
